<svg width="101" height="100" viewBox="0 0 101 100" fill="none" xmlns="http://www.w3.org/2000/svg">
<path opacity="0.5" d="M54.1334 90.8375C67.1584 88.2292 84.0001 78.8584 84.0001 54.6292C84.0001 32.5834 67.8626 17.9 56.2584 11.1542C53.6792 9.6542 50.6667 11.625 50.6667 14.6042V22.2209C50.6667 28.2292 48.1417 39.1959 41.1251 43.7584C37.5417 46.0875 33.6667 42.6 33.2334 38.35L32.8751 34.8584C32.4584 30.8 28.3251 28.3375 25.0834 30.8125C19.2542 35.25 13.1667 43.0417 13.1667 54.625C13.1667 84.2542 35.2042 91.6667 46.2209 91.6667C46.8626 91.6667 47.5376 91.6417 48.2376 91.6042C50.0959 91.3709 48.2376 92.0167 54.1334 90.8334" fill="#403E39"/>
<path d="M34.0001 76.85C34.0001 87.7666 42.796 91.1416 48.2376 91.6083C50.096 91.375 48.2376 92.0208 54.1335 90.8375C58.4626 89.3083 63.1668 85.3833 63.1668 76.85C63.1668 71.4458 59.7543 68.1083 57.0835 66.5458C56.2668 66.0666 55.3168 66.6708 55.246 67.6125C55.0126 70.6041 52.1376 72.9875 50.1835 70.7125C48.4543 68.7041 47.7251 65.7666 47.7251 63.8875V61.4291C47.7251 59.9541 46.2376 58.9708 44.9626 59.7291C40.2293 62.5333 34.0001 68.3083 34.0001 76.85Z" fill="#403E39"/>
</svg>
