<svg width="100" height="100" viewBox="0 0 100 100" fill="none" xmlns="http://www.w3.org/2000/svg">
<path opacity="0.5" d="M41.6668 83.3333H58.3335C61.0835 83.3333 63.5877 83.3333 65.8835 83.3083L64.2043 81.6291C62.9561 80.3808 62.0857 78.8054 61.6932 77.0842C61.3008 75.363 61.4023 73.566 61.9861 71.9C62.5699 70.234 63.6122 68.7666 64.9931 67.6668C66.374 66.567 68.0374 65.8795 69.7918 65.6833V58.3333C69.7918 55.8469 70.7795 53.4623 72.5377 51.7042C74.2959 49.946 76.6804 48.9583 79.1668 48.9583C81.6532 48.9583 84.0378 49.946 85.796 51.7042C87.5541 53.4623 88.5418 55.8469 88.5418 58.3333V65.6833C89.4752 65.7875 90.396 66.0291 91.2668 66.4125C91.6668 62.1541 91.6668 56.8166 91.6668 50C91.6668 48.1583 91.6668 43.3 91.6585 41.6666H8.34183C8.3335 43.3 8.3335 48.1583 8.3335 50C8.3335 65.7125 8.3335 73.5708 13.2168 78.45C18.096 83.3333 25.9543 83.3333 41.6668 83.3333Z" fill="#403E39"/>
<path fill-rule="evenodd" clip-rule="evenodd" d="M76.9584 85.5417C77.5444 86.1269 78.3386 86.4556 79.1668 86.4556C79.9949 86.4556 80.7892 86.1269 81.3751 85.5417L89.7084 77.2084C90.0155 76.9223 90.2617 76.5773 90.4325 76.194C90.6033 75.8106 90.6952 75.3968 90.7026 74.9772C90.71 74.5576 90.6328 74.1408 90.4756 73.7517C90.3184 73.3626 90.0845 73.0091 89.7878 72.7124C89.491 72.4156 89.1375 72.1817 88.7484 72.0245C88.3593 71.8674 87.9425 71.7902 87.5229 71.7976C87.1033 71.805 86.6895 71.8968 86.3062 72.0676C85.9229 72.2384 85.5779 72.4847 85.2918 72.7917L82.2918 75.7917V58.3334C82.2918 57.5046 81.9625 56.7097 81.3765 56.1237C80.7904 55.5376 79.9956 55.2084 79.1668 55.2084C78.338 55.2084 77.5431 55.5376 76.9571 56.1237C76.371 56.7097 76.0418 57.5046 76.0418 58.3334V75.7917L73.0418 72.7917C72.7557 72.4847 72.4107 72.2384 72.0274 72.0676C71.644 71.8968 71.2302 71.805 70.8106 71.7976C70.391 71.7902 69.9742 71.8674 69.5851 72.0245C69.196 72.1817 68.8425 72.4156 68.5458 72.7124C68.249 73.0091 68.0151 73.3626 67.8579 73.7517C67.7008 74.1408 67.6236 74.5576 67.631 74.9772C67.6384 75.3968 67.7302 75.8106 67.901 76.194C68.0718 76.5773 68.3181 76.9223 68.6251 77.2084L76.9584 85.5417Z" fill="#403E39"/>
<path d="M52.0835 63.5416C51.2547 63.5416 50.4598 63.8709 49.8738 64.4569C49.2877 65.043 48.9585 65.8378 48.9585 66.6666C48.9585 67.4954 49.2877 68.2903 49.8738 68.8763C50.4598 69.4624 51.2547 69.7916 52.0835 69.7916H58.3335C59.1623 69.7916 59.9571 69.4624 60.5432 68.8763C61.1293 68.2903 61.4585 67.4954 61.4585 66.6666C61.4585 65.8378 61.1293 65.043 60.5432 64.4569C59.9571 63.8709 59.1623 63.5416 58.3335 63.5416H52.0835ZM25.0002 63.5416C24.1714 63.5416 23.3765 63.8709 22.7905 64.4569C22.2044 65.043 21.8752 65.8378 21.8752 66.6666C21.8752 67.4954 22.2044 68.2903 22.7905 68.8763C23.3765 69.4624 24.1714 69.7916 25.0002 69.7916H41.6668C42.4956 69.7916 43.2905 69.4624 43.8765 68.8763C44.4626 68.2903 44.7918 67.4954 44.7918 66.6666C44.7918 65.8378 44.4626 65.043 43.8765 64.4569C43.2905 63.8709 42.4956 63.5416 41.6668 63.5416H25.0002ZM41.646 16.6666H58.3543C74.1085 16.6666 81.9877 16.6666 86.8793 21.3166C90.4043 24.6625 91.3918 29.4833 91.6668 37.5V41.6666H8.3335V37.5C8.6085 29.4791 9.596 24.6666 13.121 21.3166C18.0127 16.6666 25.8918 16.6666 41.646 16.6666Z" fill="#403E39"/>
</svg>
