<svg width="101" height="100" viewBox="0 0 101 100" fill="none" xmlns="http://www.w3.org/2000/svg">
<path opacity="0.5" fill-rule="evenodd" clip-rule="evenodd" d="M9.70829 50C9.70829 27.5625 27.8958 9.375 50.3333 9.375C72.7707 9.375 90.9582 27.5625 90.9582 50V61.6376C91.4295 61.4709 91.934 61.4198 92.4291 61.4885C92.9243 61.5571 93.3958 61.7436 93.8039 62.0322C94.2121 62.3207 94.5451 62.7031 94.775 63.147C95.0048 63.5909 95.1248 64.0835 95.1249 64.5834V72.9167C95.1249 73.7455 94.7957 74.5404 94.2096 75.1264C93.6236 75.7125 92.8287 76.0417 91.9999 76.0417C91.1711 76.0417 90.3762 75.7125 89.7902 75.1264C89.2041 74.5404 88.8749 73.7455 88.8749 72.9167V70.8334H84.7082V50C84.7082 40.8832 81.0866 32.1398 74.64 25.6932C68.1935 19.2467 59.4501 15.625 50.3333 15.625C41.2164 15.625 32.473 19.2467 26.0265 25.6932C19.5799 32.1398 15.9583 40.8832 15.9583 50V70.8334H11.7916V72.9167C11.7916 73.7455 11.4624 74.5404 10.8763 75.1264C10.2903 75.7125 9.49542 76.0417 8.66662 76.0417C7.83782 76.0417 7.04297 75.7125 6.45692 75.1264C5.87087 74.5404 5.54163 73.7455 5.54163 72.9167V64.5834C5.5417 64.0835 5.6617 63.5909 5.89155 63.147C6.1214 62.7031 6.4544 62.3207 6.86259 62.0322C7.27078 61.7436 7.74224 61.5571 8.2374 61.4885C8.73257 61.4198 9.23698 61.4709 9.70829 61.6376V50Z" fill="#403E39"/>
<path d="M33.6666 58.5417C33.6666 55 33.6666 53.2334 32.7916 52C32.3468 51.3775 31.7634 50.8668 31.0874 50.5084C29.7333 49.7834 27.9083 49.95 24.2541 50.2875C18.0875 50.8459 15.0125 51.1292 12.8041 52.6667C11.6943 53.4381 10.7565 54.4312 10.05 55.5834C8.66663 57.8542 8.66663 60.8334 8.66663 66.7917V74.0417C8.66663 79.9459 8.66663 82.9 10.075 85.1792C10.6041 86.0334 11.2666 86.8042 12.0375 87.4584C14.1 89.2209 17.1083 89.7709 23.1291 90.8667C27.3624 91.6417 29.4833 92.0292 31.0458 91.2125C31.6208 90.9125 32.1291 90.5042 32.5458 90.0167C33.6666 88.6875 33.6666 86.6084 33.6666 82.4542V58.5417ZM66.9999 58.5417C66.9999 55 66.9999 53.2334 67.8749 52C68.3124 51.3834 68.8957 50.8709 69.5791 50.5084C70.9332 49.7834 72.7582 49.95 76.4124 50.2875C82.5791 50.8459 85.6541 51.1292 87.8624 52.6667C88.9791 53.45 89.9166 54.4417 90.6166 55.5834C91.9999 57.85 91.9999 60.8334 91.9999 66.7917V74.0417C91.9999 79.9459 91.9999 82.9 90.5916 85.1792C90.0624 86.0334 89.3999 86.8042 88.6291 87.4584C86.5666 89.2209 83.5582 89.7709 77.5374 90.8667C73.3041 91.6417 71.1832 92.0292 69.6207 91.2125C69.0478 90.9151 68.5383 90.5089 68.1207 90.0167C66.9999 88.6875 66.9999 86.6084 66.9999 82.4542V58.5417Z" fill="#403E39"/>
</svg>
