<svg width="34" height="34" viewBox="0 0 34 34" fill="none" xmlns="http://www.w3.org/2000/svg">
<path fill-rule="evenodd" clip-rule="evenodd" d="M29.75 15.7223V22.7957C29.75 27.1817 29.75 29.3762 28.7102 30.3338C28.2143 30.7914 27.5882 31.079 26.9209 31.1555C25.5227 31.3156 23.8892 29.8706 20.6238 26.982C19.1788 25.7056 18.4577 25.0667 17.6233 24.8995C17.2119 24.8165 16.7881 24.8165 16.3767 24.8995C15.5408 25.0667 14.8198 25.7056 13.3762 26.982C10.1108 29.8706 8.47733 31.3156 7.07908 31.1541C6.41075 31.0774 5.78413 30.7901 5.28983 30.3338C4.25 29.3762 4.25 27.1832 4.25 22.7957V15.7209C4.25 9.64766 4.25 6.61033 6.11717 4.72191C7.98433 2.8335 10.9905 2.8335 17 2.8335C23.0109 2.8335 26.0157 2.8335 27.8828 4.7205C29.75 6.60891 29.75 9.64766 29.75 15.7223ZM11.6875 8.50016C11.6875 8.21837 11.7994 7.94812 11.9987 7.74886C12.198 7.5496 12.4682 7.43766 12.75 7.43766H21.25C21.5318 7.43766 21.802 7.5496 22.0013 7.74886C22.2006 7.94812 22.3125 8.21837 22.3125 8.50016C22.3125 8.78196 22.2006 9.05221 22.0013 9.25146C21.802 9.45072 21.5318 9.56266 21.25 9.56266H12.75C12.4682 9.56266 12.198 9.45072 11.9987 9.25146C11.7994 9.05221 11.6875 8.78196 11.6875 8.50016Z" fill="#F8F8F8"/>
</svg>
