<svg width="24" height="24" viewBox="0 0 24 24" fill="none" xmlns="http://www.w3.org/2000/svg">
<path d="M3.86379 16.455C3.00579 13.023 2.57679 11.308 3.47779 10.154C4.37779 9 6.14779 9 9.68479 9H14.3148C17.8528 9 19.6208 9 20.5218 10.154C21.4228 11.307 20.9938 13.024 20.1358 16.455C19.5898 18.638 19.3178 19.729 18.5038 20.365C17.6898 21 16.5648 21 14.3148 21H9.68479C7.43479 21 6.30979 21 5.49579 20.365C4.68179 19.729 4.40879 18.638 3.86379 16.455Z" stroke="#403E39" stroke-width="1.5"/>
<path opacity="0.5" d="M19.4998 9.5L18.7898 6.895C18.5158 5.89 18.3788 5.388 18.0978 5.009C17.8176 4.63246 17.4371 4.3424 16.9998 4.172C16.5598 4 16.0398 4 14.9998 4M4.49976 9.5L5.20976 6.895C5.48376 5.89 5.62076 5.388 5.90176 5.009C6.18193 4.63246 6.56244 4.3424 6.99976 4.172C7.43976 4 7.95976 4 8.99976 4" stroke="#403E39" stroke-width="1.5"/>
<path d="M8.99976 4C8.99976 3.73478 9.10511 3.48043 9.29265 3.29289C9.48019 3.10536 9.73454 3 9.99976 3H13.9998C14.265 3 14.5193 3.10536 14.7069 3.29289C14.8944 3.48043 14.9998 3.73478 14.9998 4C14.9998 4.26522 14.8944 4.51957 14.7069 4.70711C14.5193 4.89464 14.265 5 13.9998 5H9.99976C9.73454 5 9.48019 4.89464 9.29265 4.70711C9.10511 4.51957 8.99976 4.26522 8.99976 4Z" stroke="#403E39" stroke-width="1.5"/>
<path opacity="0.5" d="M7.99976 13V17M15.9998 13V17M11.9998 13V17" stroke="#403E39" stroke-width="1.5" stroke-linecap="round" stroke-linejoin="round"/>
</svg>
