<svg width="45" height="45" viewBox="0 0 45 45" fill="none" xmlns="http://www.w3.org/2000/svg">
<path opacity="0.5" d="M20.0008 11.5012L19.0595 10.8356C17.7163 9.88518 16.1113 9.37485 14.4658 9.375H13.3183C12.5589 9.375 11.7939 9.42187 11.0795 9.675C6.6114 11.2612 3.53828 17.0531 3.7614 30.1931C3.8064 32.8406 4.42515 35.7656 6.8139 36.9075C7.62876 37.2993 8.52163 37.5018 9.42578 37.5C10.442 37.5167 11.4404 37.2315 12.2945 36.6806C13.0633 36.1781 13.7383 35.5256 14.4133 34.8731C15.2458 34.0669 16.0783 33.2606 17.0833 32.7394C18.1782 32.1715 19.3936 31.8751 20.627 31.875H24.3752C25.6089 31.875 26.8239 32.1712 27.9189 32.7375C28.9239 33.2606 29.7564 34.0669 30.5908 34.8731C31.2658 35.5256 31.9408 36.1781 32.7058 36.6806C33.437 37.1606 34.3839 37.5 35.5764 37.5C36.4806 37.5018 37.3734 37.2993 38.1883 36.9075C40.577 35.7656 41.1958 32.8388 41.2408 30.1931C41.4639 17.0531 38.3908 11.2612 33.9227 9.67687C33.2064 9.42187 32.4377 9.375 31.682 9.375H30.5345C28.8888 9.37528 27.2837 9.88628 25.9408 10.8375L24.9995 11.5012C24.2687 12.0183 23.3954 12.296 22.5002 12.296C21.6049 12.296 20.7316 12.0183 20.0008 11.5012Z" fill="#403E39"/>
<path d="M31.4062 16.875C31.7792 16.875 32.1369 17.0232 32.4006 17.2869C32.6643 17.5506 32.8125 17.9083 32.8125 18.2812C32.8125 18.6542 32.6643 19.0119 32.4006 19.2756C32.1369 19.5393 31.7792 19.6875 31.4062 19.6875C31.0333 19.6875 30.6756 19.5393 30.4119 19.2756C30.1482 19.0119 30 18.6542 30 18.2812C30 17.9083 30.1482 17.5506 30.4119 17.2869C30.6756 17.0232 31.0333 16.875 31.4062 16.875ZM14.0625 17.3438C14.4355 17.3438 14.7931 17.4919 15.0569 17.7556C15.3206 18.0194 15.4688 18.377 15.4688 18.75V20.1562H16.875C17.248 20.1562 17.6056 20.3044 17.8694 20.5681C18.1331 20.8319 18.2812 21.1895 18.2812 21.5625C18.2812 21.9355 18.1331 22.2931 17.8694 22.5569C17.6056 22.8206 17.248 22.9688 16.875 22.9688H15.4688V24.375C15.4688 24.748 15.3206 25.1056 15.0569 25.3694C14.7931 25.6331 14.4355 25.7812 14.0625 25.7812C13.6895 25.7812 13.3319 25.6331 13.0681 25.3694C12.8044 25.1056 12.6562 24.748 12.6562 24.375V22.9688H11.25C10.877 22.9688 10.5194 22.8206 10.2556 22.5569C9.99191 22.2931 9.84375 21.9355 9.84375 21.5625C9.84375 21.1895 9.99191 20.8319 10.2556 20.5681C10.5194 20.3044 10.877 20.1562 11.25 20.1562H12.6562V18.75C12.6562 18.377 12.8044 18.0194 13.0681 17.7556C13.3319 17.4919 13.6895 17.3438 14.0625 17.3438ZM35.625 21.0938C35.625 21.4667 35.4768 21.8244 35.2131 22.0881C34.9494 22.3518 34.5917 22.5 34.2188 22.5C33.8458 22.5 33.4881 22.3518 33.2244 22.0881C32.9607 21.8244 32.8125 21.4667 32.8125 21.0938C32.8125 20.7208 32.9607 20.3631 33.2244 20.0994C33.4881 19.8357 33.8458 19.6875 34.2188 19.6875C34.5917 19.6875 34.9494 19.8357 35.2131 20.0994C35.4768 20.3631 35.625 20.7208 35.625 21.0938ZM28.5938 22.5C28.9667 22.5 29.3244 22.3518 29.5881 22.0881C29.8518 21.8244 30 21.4667 30 21.0938C30 20.7208 29.8518 20.3631 29.5881 20.0994C29.3244 19.8357 28.9667 19.6875 28.5938 19.6875C28.2208 19.6875 27.8631 19.8357 27.5994 20.0994C27.3357 20.3631 27.1875 20.7208 27.1875 21.0938C27.1875 21.4667 27.3357 21.8244 27.5994 22.0881C27.8631 22.3518 28.2208 22.5 28.5938 22.5ZM32.8125 23.9062C32.8125 23.5333 32.6643 23.1756 32.4006 22.9119C32.1369 22.6482 31.7792 22.5 31.4062 22.5C31.0333 22.5 30.6756 22.6482 30.4119 22.9119C30.1482 23.1756 30 23.5333 30 23.9062C30 24.2792 30.1482 24.6369 30.4119 24.9006C30.6756 25.1643 31.0333 25.3125 31.4062 25.3125C31.7792 25.3125 32.1369 25.1643 32.4006 24.9006C32.6643 24.6369 32.8125 24.2792 32.8125 23.9062Z" fill="#403E39"/>
</svg>
