<svg width="24" height="25" viewBox="0 0 24 25" fill="none" xmlns="http://www.w3.org/2000/svg">
<path opacity="0.5" d="M2 12.954C2 10.665 2 9.521 2.52 8.573C3.038 7.624 3.987 7.036 5.884 5.858L7.884 4.617C9.889 3.372 10.892 2.75 12 2.75C13.108 2.75 14.11 3.372 16.116 4.617L18.116 5.858C20.013 7.036 20.962 7.624 21.481 8.573C22 9.521 22 10.665 22 12.953V14.475C22 18.375 22 20.326 20.828 21.538C19.657 22.75 17.771 22.75 14 22.75H10C6.229 22.75 4.343 22.75 3.172 21.538C2 20.326 2 18.376 2 14.475V12.954Z" fill="#403E39"/>
<path d="M9.44697 16.148C9.28718 16.0295 9.08683 15.9792 8.89001 16.0084C8.69319 16.0376 8.51602 16.1437 8.39747 16.3035C8.27892 16.4633 8.2287 16.6636 8.25786 16.8605C8.28702 17.0573 8.39318 17.2345 8.55297 17.353C9.54836 18.0968 10.7574 18.4991 12 18.5C13.2425 18.4991 14.4516 18.0968 15.447 17.353C15.6069 17.2345 15.7132 17.0572 15.7424 16.8603C15.7717 16.6634 15.7215 16.4629 15.603 16.303C15.4844 16.1431 15.3072 16.0368 15.1103 16.0075C14.9134 15.9783 14.7129 16.0285 14.553 16.147C13.8163 16.6994 12.9207 16.9986 12 17C11.0793 16.9989 10.1837 16.7 9.44697 16.148Z" fill="#403E39"/>
</svg>
