<svg width="32" height="33" viewBox="0 0 32 33" fill="none" xmlns="http://www.w3.org/2000/svg">
<path opacity="0.5" d="M28 22.0807V14.0807C28 10.31 28 8.42471 26.828 7.25271C25.804 6.22871 24.2333 6.09937 21.3333 6.08337H10.6667C7.76667 6.09937 6.196 6.22871 5.172 7.25271C4 8.42471 4 10.31 4 14.0807V22.0807C4 25.8527 4 27.738 5.172 28.91C6.34267 30.0807 8.22933 30.0807 12 30.0807H20C23.7707 30.0807 25.6573 30.0807 26.828 28.91C28 27.7367 28 25.8527 28 22.0807Z" fill="#F8F8F8"/>
<path d="M10.6666 5.41663C10.6666 4.88619 10.8773 4.37749 11.2524 4.00241C11.6275 3.62734 12.1362 3.41663 12.6666 3.41663H19.3333C19.8637 3.41663 20.3724 3.62734 20.7475 4.00241C21.1226 4.37749 21.3333 4.88619 21.3333 5.41663V6.74996C21.3333 7.28039 21.1226 7.7891 20.7475 8.16417C20.3724 8.53925 19.8637 8.74996 19.3333 8.74996H12.6666C12.1362 8.74996 11.6275 8.53925 11.2524 8.16417C10.8773 7.7891 10.6666 7.28039 10.6666 6.74996V5.41663Z" fill="#F8F8F8"/>
<path fill-rule="evenodd" clip-rule="evenodd" d="M8.33337 20.0834C8.33337 19.8182 8.43873 19.5638 8.62627 19.3763C8.8138 19.1887 9.06816 19.0834 9.33337 19.0834H20C20.2653 19.0834 20.5196 19.1887 20.7071 19.3763C20.8947 19.5638 21 19.8182 21 20.0834C21 20.3486 20.8947 20.6029 20.7071 20.7905C20.5196 20.978 20.2653 21.0834 20 21.0834H9.33337C9.06816 21.0834 8.8138 20.978 8.62627 20.7905C8.43873 20.6029 8.33337 20.3486 8.33337 20.0834ZM8.33337 24.75C8.33337 24.4848 8.43873 24.2305 8.62627 24.0429C8.8138 23.8554 9.06816 23.75 9.33337 23.75H16.6667C16.9319 23.75 17.1863 23.8554 17.3738 24.0429C17.5613 24.2305 17.6667 24.4848 17.6667 24.75C17.6667 25.0153 17.5613 25.2696 17.3738 25.4571C17.1863 25.6447 16.9319 25.75 16.6667 25.75H9.33337C9.06816 25.75 8.8138 25.6447 8.62627 25.4571C8.43873 25.2696 8.33337 25.0153 8.33337 24.75Z" fill="#F8F8F8"/>
</svg>
