<svg width="45" height="45" viewBox="0 0 45 45" fill="none" xmlns="http://www.w3.org/2000/svg">
<path fill-rule="evenodd" clip-rule="evenodd" d="M22.5975 3.75H22.4025C19.2525 3.75 16.7587 3.75 14.805 4.01625C12.795 4.29187 11.1675 4.87125 9.885 6.17625C8.6025 7.48125 8.0325 9.13875 7.7625 11.1825C7.5 13.17 7.5 15.7087 7.5 18.9131V26.0869C7.5 29.2931 7.5 31.8319 7.7625 33.8175C8.0325 35.8612 8.6025 37.5187 9.885 38.8237C11.1675 40.1287 12.795 40.7081 14.805 40.9837C16.7569 41.25 19.2525 41.25 22.4025 41.25H22.5975C25.7475 41.25 28.2413 41.25 30.195 40.9837C32.205 40.7081 33.8325 40.1287 35.115 38.8237C36.3975 37.5187 36.9675 35.8612 37.2375 33.8175C37.5 31.83 37.5 29.2913 37.5 26.0869V18.9131C37.5 15.7069 37.5 13.1681 37.2375 11.1825C36.9675 9.13875 36.3975 7.48125 35.115 6.17625C33.8325 4.87125 32.205 4.29187 30.195 4.01625C28.2431 3.75 25.7475 3.75 22.5975 3.75ZM16.0725 34.71C16.0705 34.5396 16.1022 34.3705 16.1658 34.2125C16.2293 34.0544 16.3234 33.9104 16.4428 33.7888C16.5621 33.6672 16.7043 33.5703 16.8612 33.5038C17.018 33.4373 17.1865 33.4025 17.3569 33.4012H27.6431C28.3538 33.4012 28.9294 33.9862 28.9294 34.71C28.9319 35.0538 28.7978 35.3845 28.5566 35.6296C28.3155 35.8746 27.9869 36.0139 27.6431 36.0169H17.3569C17.0131 36.0139 16.6845 35.8746 16.4434 35.6296C16.2022 35.3845 16.07 35.0538 16.0725 34.71Z" fill="#403E39"/>
</svg>
