<svg width="35" height="34" viewBox="0 0 35 34" fill="none" xmlns="http://www.w3.org/2000/svg">
<path d="M14.5537 7.53113L15.4731 9.17871C16.3019 10.6662 15.969 12.6155 14.6628 13.9231C14.6628 13.9231 13.0761 15.5084 15.952 18.3828C18.8236 21.2544 20.4088 19.672 20.4102 19.672C21.7178 18.3644 23.6686 18.0315 25.1546 18.8602L26.8022 19.781C29.0476 21.0334 29.3126 24.1812 27.3391 26.156C26.1534 27.3404 24.6999 28.264 23.0948 28.3235C20.3918 28.427 15.8004 27.7427 11.1948 23.1385C6.59064 18.533 5.90639 13.9415 6.0098 11.2385C6.07072 9.63346 6.99297 8.17996 8.1773 6.99421C10.1521 5.0208 13.3 5.28571 14.5523 7.53255M19.1182 2.66346C19.1638 2.38537 19.3178 2.13671 19.5464 1.97204C19.7751 1.80737 20.0598 1.74015 20.338 1.78513C20.3734 1.79221 20.4896 1.81346 20.5505 1.82763C20.6709 1.85313 20.8395 1.89563 21.0491 1.95513C21.4699 2.07838 22.0578 2.28096 22.7633 2.60396C24.1743 3.25138 26.0514 4.3833 28.0007 6.33121C29.9501 8.28055 31.082 10.159 31.7294 11.57C32.0524 12.2755 32.2535 12.862 32.3768 13.2842C32.4389 13.4963 32.4923 13.7109 32.5369 13.9274L32.544 13.9713C32.5906 14.2518 32.5251 14.5395 32.3616 14.7722C32.1981 15.0049 31.9496 15.164 31.6699 15.2151C31.3925 15.2602 31.1086 15.1935 30.8802 15.0297C30.6519 14.8659 30.4978 14.6182 30.4516 14.341C30.4226 14.1845 30.3843 14.0298 30.3368 13.8778C30.1921 13.3913 30.0121 12.9159 29.7985 12.4555C29.246 11.2513 28.2515 9.58813 26.4976 7.8343C24.7452 6.08046 23.0821 5.08738 21.8765 4.53488C21.4165 4.32127 20.9416 4.14136 20.4556 3.99655C20.3065 3.95449 20.1563 3.9167 20.0051 3.88321C19.7268 3.83688 19.4778 3.68305 19.312 3.45487C19.1461 3.2267 19.0765 2.94247 19.1182 2.66346Z" fill="#F8F8F8"/>
<path fill-rule="evenodd" clip-rule="evenodd" d="M19.4384 7.55101C19.4766 7.41677 19.5409 7.29136 19.6275 7.18196C19.7142 7.07256 19.8216 6.98131 19.9436 6.91343C20.0655 6.84555 20.1997 6.80236 20.3383 6.78633C20.477 6.7703 20.6174 6.78174 20.7516 6.82001L20.7559 6.82143L20.7601 6.82285L20.7715 6.82568L20.7998 6.83418L20.8791 6.86251C21.2556 7.00756 21.6191 7.18433 21.9657 7.39093C22.6585 7.80176 23.6048 8.48176 24.7169 9.59526C25.829 10.7073 26.5104 11.6537 26.9212 12.3464C27.1266 12.6935 27.2626 12.9754 27.3505 13.1823C27.3976 13.2905 27.4401 13.4006 27.478 13.5123L27.4851 13.5407L27.4893 13.552V13.5563L27.4907 13.5577C27.4907 13.5577 27.4907 13.5605 26.4707 13.8523L27.4907 13.5605C27.5627 13.8286 27.5269 14.1142 27.391 14.3562C27.2551 14.5982 27.0299 14.7774 26.7635 14.8555C26.4972 14.9336 26.2109 14.9044 25.9658 14.7741C25.7207 14.6438 25.5364 14.4228 25.4521 14.1583L25.4479 14.1442C25.3483 13.8975 25.2299 13.6588 25.0937 13.4302C24.7764 12.8961 24.2055 12.0886 23.2138 11.0969C22.2221 10.1053 21.4161 9.53576 20.882 9.21985C20.6534 9.08366 20.4147 8.96525 20.168 8.86568L20.1538 8.86001C19.8862 8.77956 19.6611 8.59691 19.5271 8.35164C19.3932 8.10636 19.3614 7.81963 19.4384 7.55101Z" fill="#F8F8F8"/>
</svg>
