<svg width="24" height="24" viewBox="0 0 24 24" fill="none" xmlns="http://www.w3.org/2000/svg">
<path opacity="0.5" d="M17.967 6.55811L16.137 4.72811C14.591 3.18311 13.819 2.41011 12.816 2.12311C11.813 1.83511 10.748 2.08111 8.619 2.57311L7.391 2.85611C5.599 3.26911 4.703 3.47611 4.089 4.08911C3.476 4.70311 3.269 5.59911 2.856 7.39111L2.572 8.61911C2.081 10.7491 1.835 11.8131 2.122 12.8161C2.41 13.8191 3.183 14.5911 4.728 16.1361L6.558 17.9661C9.248 20.6571 10.592 22.0001 12.262 22.0001C13.933 22.0001 15.277 20.6561 17.966 17.9671C20.656 15.2771 22 13.9331 22 12.2621C22 10.5921 20.656 9.24711 17.967 6.55811Z" fill="#F0AE2C"/>
<path d="M11.147 14.3281C10.474 13.6561 10.48 12.6901 10.882 11.9251C10.7822 11.781 10.7361 11.6065 10.7516 11.4319C10.7671 11.2573 10.8432 11.0936 10.9668 10.9693C11.0904 10.8451 11.2536 10.768 11.4281 10.7515C11.6026 10.735 11.7773 10.7801 11.922 10.8791C12.262 10.6991 12.635 10.6031 13.007 10.6071C13.2059 10.6089 13.396 10.6897 13.5353 10.8317C13.6746 10.9737 13.7519 11.1652 13.75 11.3641C13.7482 11.563 13.6674 11.753 13.5254 11.8923C13.3834 12.0317 13.1919 12.1089 12.993 12.1071C12.7615 12.1156 12.5426 12.2152 12.384 12.3841C11.997 12.7711 12.099 13.1591 12.207 13.2681C12.317 13.3771 12.704 13.4781 13.091 13.0911C13.875 12.3071 15.229 12.0471 16.097 12.9141C16.77 13.5871 16.764 14.5531 16.361 15.3181C16.4602 15.4622 16.5058 15.6365 16.49 15.8107C16.4743 15.9849 16.3981 16.1482 16.2747 16.2722C16.1513 16.3961 15.9884 16.4731 15.8143 16.4897C15.6401 16.5063 15.4656 16.4615 15.321 16.3631C14.8722 16.6092 14.3517 16.6912 13.849 16.5951C13.7525 16.5752 13.6608 16.5366 13.5792 16.4813C13.4977 16.4261 13.4277 16.3553 13.3735 16.273C13.3193 16.1907 13.2818 16.0986 13.2632 16.0018C13.2446 15.9051 13.2452 15.8056 13.265 15.7091C13.2848 15.6125 13.3235 15.5209 13.3787 15.4393C13.434 15.3577 13.5048 15.2878 13.5871 15.2336C13.6693 15.1793 13.7615 15.1418 13.8582 15.1232C13.955 15.1046 14.0545 15.1052 14.151 15.1251C14.328 15.1621 14.614 15.1041 14.859 14.8591C15.247 14.4711 15.145 14.0841 15.036 13.9751C14.927 13.8661 14.54 13.7651 14.152 14.1521C13.368 14.9361 12.014 15.1961 11.147 14.3281ZM10.021 10.2931C10.212 10.1086 10.3644 9.88789 10.4692 9.64388C10.574 9.39987 10.6292 9.13743 10.6315 8.87187C10.6338 8.60631 10.5832 8.34295 10.4827 8.09716C10.3821 7.85137 10.2336 7.62806 10.0458 7.44028C9.85802 7.25249 9.63472 7.10399 9.38892 7.00343C9.14313 6.90286 8.87977 6.85226 8.61421 6.85457C8.34865 6.85688 8.08621 6.91205 7.84221 7.01687C7.5982 7.12168 7.37751 7.27405 7.19302 7.46507C6.8287 7.84227 6.62711 8.34748 6.63167 8.87187C6.63622 9.39626 6.84656 9.89789 7.21738 10.2687C7.58819 10.6395 8.08982 10.8499 8.61421 10.8544C9.13861 10.859 9.64381 10.6574 10.021 10.2931Z" fill="#F0AE2C"/>
</svg>
