<svg width="25" height="24" viewBox="0 0 25 24" fill="none" xmlns="http://www.w3.org/2000/svg">
<path opacity="0.5" d="M18.467 6.55811L16.637 4.72811C15.091 3.18311 14.319 2.41011 13.316 2.12311C12.313 1.83511 11.248 2.08111 9.119 2.57311L7.891 2.85611C6.099 3.26911 5.203 3.47611 4.589 4.08911C3.976 4.70311 3.769 5.59911 3.356 7.39111L3.072 8.61911C2.581 10.7491 2.335 11.8131 2.622 12.8161C2.91 13.8191 3.683 14.5911 5.228 16.1361L7.058 17.9661C9.748 20.6571 11.092 22.0001 12.762 22.0001C14.433 22.0001 15.777 20.6561 18.466 17.9671C21.156 15.2771 22.5 13.9331 22.5 12.2621C22.5 10.5921 21.156 9.24711 18.467 6.55811Z" fill="#403E39"/>
<path d="M11.647 14.3281C10.974 13.6561 10.98 12.6901 11.382 11.9251C11.2822 11.781 11.2361 11.6065 11.2516 11.4319C11.2671 11.2573 11.3432 11.0936 11.4668 10.9693C11.5904 10.8451 11.7536 10.768 11.9281 10.7515C12.1026 10.735 12.2773 10.7801 12.422 10.8791C12.762 10.6991 13.135 10.6031 13.507 10.6071C13.7059 10.6089 13.896 10.6897 14.0353 10.8317C14.1746 10.9737 14.2519 11.1652 14.25 11.3641C14.2482 11.563 14.1674 11.753 14.0254 11.8923C13.8834 12.0317 13.6919 12.1089 13.493 12.1071C13.2615 12.1156 13.0426 12.2152 12.884 12.3841C12.497 12.7711 12.599 13.1591 12.707 13.2681C12.817 13.3771 13.204 13.4781 13.591 13.0911C14.375 12.3071 15.729 12.0471 16.597 12.9141C17.27 13.5871 17.264 14.5531 16.861 15.3181C16.9602 15.4622 17.0058 15.6365 16.99 15.8107C16.9743 15.9849 16.8981 16.1482 16.7747 16.2722C16.6513 16.3961 16.4884 16.4731 16.3143 16.4897C16.1401 16.5063 15.9656 16.4615 15.821 16.3631C15.3722 16.6092 14.8517 16.6912 14.349 16.5951C14.2525 16.5752 14.1608 16.5366 14.0792 16.4813C13.9977 16.4261 13.9277 16.3553 13.8735 16.273C13.8193 16.1907 13.7818 16.0986 13.7632 16.0018C13.7446 15.9051 13.7452 15.8056 13.765 15.7091C13.7848 15.6125 13.8235 15.5209 13.8787 15.4393C13.934 15.3577 14.0048 15.2878 14.0871 15.2336C14.1693 15.1793 14.2615 15.1418 14.3582 15.1232C14.455 15.1046 14.5545 15.1052 14.651 15.1251C14.828 15.1621 15.114 15.1041 15.359 14.8591C15.747 14.4711 15.645 14.0841 15.536 13.9751C15.427 13.8661 15.04 13.7651 14.652 14.1521C13.868 14.9361 12.514 15.1961 11.647 14.3281ZM10.521 10.2931C10.712 10.1086 10.8644 9.88789 10.9692 9.64388C11.074 9.39987 11.1292 9.13743 11.1315 8.87187C11.1338 8.60631 11.0832 8.34295 10.9827 8.09716C10.8821 7.85137 10.7336 7.62806 10.5458 7.44028C10.358 7.25249 10.1347 7.10399 9.88892 7.00343C9.64313 6.90286 9.37977 6.85226 9.11421 6.85457C8.84865 6.85688 8.58621 6.91205 8.34221 7.01687C8.0982 7.12168 7.87751 7.27405 7.69302 7.46507C7.3287 7.84227 7.12711 8.34748 7.13167 8.87187C7.13622 9.39626 7.34656 9.89789 7.71738 10.2687C8.08819 10.6395 8.58982 10.8499 9.11421 10.8544C9.63861 10.859 10.1438 10.6574 10.521 10.2931Z" fill="#403E39"/>
</svg>
