<svg width="128" height="128" viewBox="0 0 128 128" fill="none" xmlns="http://www.w3.org/2000/svg">
<path opacity="0.5" d="M74.6667 112H53.3334C33.2214 112 23.1627 112 16.9174 105.749C10.6667 99.504 10.6667 89.4453 10.6667 69.3333V68H117.333V69.3333C117.333 89.4453 117.333 99.504 111.083 105.749C104.837 112 94.7787 112 74.6667 112ZM53.3334 16H74.6667C94.7787 16 104.837 16 111.083 22.2507C117.333 28.496 117.333 38.5547 117.333 58.6667V60H10.6667V58.6667C10.6667 38.5547 10.6667 28.496 16.9174 22.2507C23.1627 16 33.2214 16 53.3334 16Z" fill="#403E39"/>
<path fill-rule="evenodd" clip-rule="evenodd" d="M117.333 68H10.6667V60H117.333V68Z" fill="#403E39"/>
<path d="M68 88C68 86.9391 68.4214 85.9217 69.1716 85.1715C69.9217 84.4214 70.9391 84 72 84H96C97.0609 84 98.0783 84.4214 98.8284 85.1715C99.5786 85.9217 100 86.9391 100 88C100 89.0608 99.5786 90.0783 98.8284 90.8284C98.0783 91.5785 97.0609 92 96 92H72C70.9391 92 69.9217 91.5785 69.1716 90.8284C68.4214 90.0783 68 89.0608 68 88ZM68 40C68 38.9391 68.4214 37.9217 69.1716 37.1715C69.9217 36.4214 70.9391 36 72 36H96C97.0609 36 98.0783 36.4214 98.8284 37.1715C99.5786 37.9217 100 38.9391 100 40C100 41.0608 99.5786 42.0782 98.8284 42.8284C98.0783 43.5785 97.0609 44 96 44H72C70.9391 44 69.9217 43.5785 69.1716 42.8284C68.4214 42.0782 68 41.0608 68 40ZM32 97.3333C30.9391 97.3333 29.9217 96.9119 29.1716 96.1617C28.4214 95.4116 28 94.3942 28 93.3333V82.6666C28 81.6058 28.4214 80.5884 29.1716 79.8382C29.9217 79.0881 30.9391 78.6666 32 78.6666C33.0609 78.6666 34.0783 79.0881 34.8284 79.8382C35.5786 80.5884 36 81.6058 36 82.6666V93.3333C36 94.3942 35.5786 95.4116 34.8284 96.1617C34.0783 96.9119 33.0609 97.3333 32 97.3333ZM32 49.3333C30.9391 49.3333 29.9217 48.9119 29.1716 48.1617C28.4214 47.4116 28 46.3942 28 45.3333V34.6666C28 33.6058 28.4214 32.5883 29.1716 31.8382C29.9217 31.0881 30.9391 30.6666 32 30.6666C33.0609 30.6666 34.0783 31.0881 34.8284 31.8382C35.5786 32.5883 36 33.6058 36 34.6666V45.3333C36 46.3942 35.5786 47.4116 34.8284 48.1617C34.0783 48.9119 33.0609 49.3333 32 49.3333ZM48 97.3333C46.9391 97.3333 45.9217 96.9119 45.1716 96.1617C44.4214 95.4116 44 94.3942 44 93.3333V82.6666C44 81.6058 44.4214 80.5884 45.1716 79.8382C45.9217 79.0881 46.9391 78.6666 48 78.6666C49.0609 78.6666 50.0783 79.0881 50.8284 79.8382C51.5786 80.5884 52 81.6058 52 82.6666V93.3333C52 94.3942 51.5786 95.4116 50.8284 96.1617C50.0783 96.9119 49.0609 97.3333 48 97.3333ZM48 49.3333C46.9391 49.3333 45.9217 48.9119 45.1716 48.1617C44.4214 47.4116 44 46.3942 44 45.3333V34.6666C44 33.6058 44.4214 32.5883 45.1716 31.8382C45.9217 31.0881 46.9391 30.6666 48 30.6666C49.0609 30.6666 50.0783 31.0881 50.8284 31.8382C51.5786 32.5883 52 33.6058 52 34.6666V45.3333C52 46.3942 51.5786 47.4116 50.8284 48.1617C50.0783 48.9119 49.0609 49.3333 48 49.3333Z" fill="#403E39"/>
</svg>
