<svg width="25" height="24" viewBox="0 0 25 24" fill="none" xmlns="http://www.w3.org/2000/svg">
<path opacity="0.5" d="M14.4998 21H10.4998C6.72876 21 4.84276 21 3.67176 19.828C2.49976 18.657 2.49976 16.771 2.49976 13V12.75H22.4998V13C22.4998 16.771 22.4998 18.657 21.3278 19.828C20.1568 21 18.2708 21 14.4998 21ZM10.4998 2.99997H14.4998C18.2708 2.99997 20.1568 2.99997 21.3278 4.17197C22.4998 5.34297 22.4998 7.22897 22.4998 11V11.25H2.49976V11C2.49976 7.22897 2.49976 5.34297 3.67176 4.17197C4.84276 2.99997 6.72876 2.99997 10.4998 2.99997Z" fill="#F0AE2C"/>
<path fill-rule="evenodd" clip-rule="evenodd" d="M22.4998 12.75H2.49976V11.25H22.4998V12.75Z" fill="#F0AE2C"/>
<path d="M13.2498 16.5C13.2498 16.3011 13.3288 16.1103 13.4694 15.9696C13.6101 15.829 13.8008 15.75 13.9998 15.75H18.4998C18.6987 15.75 18.8894 15.829 19.0301 15.9696C19.1707 16.1103 19.2498 16.3011 19.2498 16.5C19.2498 16.6989 19.1707 16.8896 19.0301 17.0303C18.8894 17.171 18.6987 17.25 18.4998 17.25H13.9998C13.8008 17.25 13.6101 17.171 13.4694 17.0303C13.3288 16.8896 13.2498 16.6989 13.2498 16.5ZM13.2498 7.49997C13.2498 7.30106 13.3288 7.11029 13.4694 6.96964C13.6101 6.82899 13.8008 6.74997 13.9998 6.74997H18.4998C18.6987 6.74997 18.8894 6.82899 19.0301 6.96964C19.1707 7.11029 19.2498 7.30106 19.2498 7.49997C19.2498 7.69888 19.1707 7.88965 19.0301 8.0303C18.8894 8.17095 18.6987 8.24997 18.4998 8.24997H13.9998C13.8008 8.24997 13.6101 8.17095 13.4694 8.0303C13.3288 7.88965 13.2498 7.69888 13.2498 7.49997ZM6.49976 18.25C6.30084 18.25 6.11008 18.171 5.96943 18.0303C5.82877 17.8896 5.74976 17.6989 5.74976 17.5V15.5C5.74976 15.3011 5.82877 15.1103 5.96943 14.9696C6.11008 14.829 6.30084 14.75 6.49976 14.75C6.69867 14.75 6.88943 14.829 7.03009 14.9696C7.17074 15.1103 7.24976 15.3011 7.24976 15.5V17.5C7.24976 17.6989 7.17074 17.8896 7.03009 18.0303C6.88943 18.171 6.69867 18.25 6.49976 18.25ZM6.49976 9.24997C6.30084 9.24997 6.11008 9.17095 5.96943 9.0303C5.82877 8.88965 5.74976 8.69888 5.74976 8.49997V6.49997C5.74976 6.30106 5.82877 6.11029 5.96943 5.96964C6.11008 5.82899 6.30084 5.74997 6.49976 5.74997C6.69867 5.74997 6.88943 5.82899 7.03009 5.96964C7.17074 6.11029 7.24976 6.30106 7.24976 6.49997V8.49997C7.24976 8.69888 7.17074 8.88965 7.03009 9.0303C6.88943 9.17095 6.69867 9.24997 6.49976 9.24997ZM9.49976 18.25C9.30084 18.25 9.11008 18.171 8.96943 18.0303C8.82877 17.8896 8.74976 17.6989 8.74976 17.5V15.5C8.74976 15.3011 8.82877 15.1103 8.96943 14.9696C9.11008 14.829 9.30084 14.75 9.49976 14.75C9.69867 14.75 9.88943 14.829 10.0301 14.9696C10.1707 15.1103 10.2498 15.3011 10.2498 15.5V17.5C10.2498 17.6989 10.1707 17.8896 10.0301 18.0303C9.88943 18.171 9.69867 18.25 9.49976 18.25ZM9.49976 9.24997C9.30084 9.24997 9.11008 9.17095 8.96943 9.0303C8.82877 8.88965 8.74976 8.69888 8.74976 8.49997V6.49997C8.74976 6.30106 8.82877 6.11029 8.96943 5.96964C9.11008 5.82899 9.30084 5.74997 9.49976 5.74997C9.69867 5.74997 9.88943 5.82899 10.0301 5.96964C10.1707 6.11029 10.2498 6.30106 10.2498 6.49997V8.49997C10.2498 8.69888 10.1707 8.88965 10.0301 9.0303C9.88943 9.17095 9.69867 9.24997 9.49976 9.24997Z" fill="#F0AE2C"/>
</svg>
