<svg width="33" height="32" viewBox="0 0 33 32" fill="none" xmlns="http://www.w3.org/2000/svg">
<path fill-rule="evenodd" clip-rule="evenodd" d="M3.33331 15.9998V10.6665C3.33331 6.89584 3.33331 5.00917 4.50531 3.8385C5.67598 2.6665 7.56265 2.6665 11.3333 2.6665H22C25.7706 2.6665 27.6573 2.6665 28.828 3.8385C30 5.00917 30 6.89584 30 10.6665V15.9998C30 19.7705 30 21.6572 28.828 22.8278C27.9666 23.6905 26.7186 23.9185 24.6173 23.9785C24.6129 22.9682 24.2505 21.9923 23.5946 21.2238C23.5561 21.1789 23.5328 21.1229 23.528 21.0638C23.4472 20.0496 23.0078 19.0972 22.2884 18.3776C21.5691 17.6581 20.6169 17.2183 19.6026 17.1372C19.5436 17.1324 19.4876 17.1091 19.4426 17.0705C18.6682 16.4106 17.6841 16.0481 16.6666 16.0481C15.6492 16.0481 14.665 16.4106 13.8906 17.0705C13.8457 17.1091 13.7897 17.1324 13.7306 17.1372C12.7162 17.218 11.7637 17.6576 11.0441 18.3772C10.3244 19.0969 9.88478 20.0494 9.80398 21.0638C9.79924 21.1229 9.7759 21.1789 9.73731 21.2238C9.08191 21.9924 8.72005 22.9684 8.71598 23.9785C6.61465 23.9185 5.36665 23.6905 4.50531 22.8278C3.33331 21.6572 3.33331 19.7705 3.33331 15.9998ZM11.6666 7.99984C11.6666 7.73462 11.772 7.48027 11.9595 7.29273C12.1471 7.10519 12.4014 6.99984 12.6666 6.99984H20.6666C20.9319 6.99984 21.1862 7.10519 21.3738 7.29273C21.5613 7.48027 21.6666 7.73462 21.6666 7.99984C21.6666 8.26505 21.5613 8.51941 21.3738 8.70694C21.1862 8.89448 20.9319 8.99984 20.6666 8.99984H12.6666C12.4014 8.99984 12.1471 8.89448 11.9595 8.70694C11.772 8.51941 11.6666 8.26505 11.6666 7.99984ZM9.99998 11.6665C9.73476 11.6665 9.48041 11.7719 9.29287 11.9594C9.10534 12.1469 8.99998 12.4013 8.99998 12.6665C8.99998 12.9317 9.10534 13.1861 9.29287 13.3736C9.48041 13.5611 9.73476 13.6665 9.99998 13.6665H23.3333C23.5985 13.6665 23.8529 13.5611 24.0404 13.3736C24.228 13.1861 24.3333 12.9317 24.3333 12.6665C24.3333 12.4013 24.228 12.1469 24.0404 11.9594C23.8529 11.7719 23.5985 11.6665 23.3333 11.6665H9.99998Z" fill="#F8F8F8"/>
<path fill-rule="evenodd" clip-rule="evenodd" d="M18.1466 18.593C17.7339 18.2408 17.2092 18.0474 16.6666 18.0474C16.1241 18.0474 15.5993 18.2408 15.1866 18.593C14.8215 18.9041 14.3675 19.0922 13.8893 19.1303C13.3486 19.1734 12.8409 19.4078 12.4575 19.7915C12.0741 20.1751 11.84 20.6829 11.7973 21.2237C11.76 21.701 11.5706 22.1543 11.26 22.521C10.9085 22.9335 10.7155 23.4577 10.7155 23.9997C10.7155 24.5416 10.9085 25.0658 11.26 25.4783C11.572 25.8437 11.76 26.2983 11.7973 26.7757C11.84 27.3166 12.0743 27.8246 12.458 28.2083C12.8417 28.592 13.3497 28.8263 13.8906 28.869C14.368 28.9063 14.8226 29.0943 15.188 29.405C15.6005 29.7565 16.1247 29.9495 16.6666 29.9495C17.2086 29.9495 17.7328 29.7565 18.1453 29.405C18.5104 29.0939 18.9644 28.9058 19.4426 28.8677C19.9834 28.825 20.4912 28.5909 20.8748 28.2075C21.2585 27.824 21.4929 27.3164 21.536 26.7757C21.5737 26.2976 21.7613 25.8437 22.072 25.4783C22.4238 25.0657 22.617 24.5412 22.617 23.999C22.617 23.4568 22.4238 22.9323 22.072 22.5197C21.7608 22.1545 21.5728 21.7005 21.5346 21.2223C21.4916 20.6818 21.2574 20.1744 20.874 19.791C20.4906 19.4076 19.9831 19.1733 19.4426 19.1303C18.9644 19.0922 18.5118 18.9041 18.1466 18.593ZM19.348 23.397C19.4454 23.3077 19.5241 23.2 19.5797 23.0801C19.6352 22.9603 19.6664 22.8306 19.6716 22.6985C19.6767 22.5665 19.6556 22.4348 19.6095 22.3109C19.5634 22.1871 19.4932 22.0736 19.403 21.9771C19.3128 21.8805 19.2044 21.8028 19.084 21.7484C18.9635 21.694 18.8335 21.664 18.7015 21.6602C18.5694 21.6563 18.4379 21.6787 18.3145 21.726C18.1911 21.7733 18.0783 21.8445 17.9826 21.9357L15.8093 23.965L15.348 23.5357C15.1537 23.3576 14.8969 23.2634 14.6336 23.2737C14.3702 23.2839 14.1215 23.3976 13.9416 23.5902C13.7617 23.7828 13.6651 24.0386 13.6727 24.302C13.6804 24.5655 13.7918 24.8152 13.9826 24.997L15.1253 26.0637C15.3105 26.2367 15.5545 26.3329 15.808 26.3329C16.0614 26.3329 16.3054 26.2367 16.4906 26.0637L19.348 23.397Z" fill="#F8F8F8"/>
</svg>
